<?xml version="1.0" encoding="UTF-8" standalone="no"?>
<!-- Generator: Adobe Illustrator 23.1.1, SVG Export Plug-In . SVG Version: 6.00 Build 0)  -->

<svg
   xmlns:dc="http://purl.org/dc/elements/1.1/"
   xmlns:cc="http://creativecommons.org/ns#"
   xmlns:rdf="http://www.w3.org/1999/02/22-rdf-syntax-ns#"
   xmlns:svg="http://www.w3.org/2000/svg"
   xmlns="http://www.w3.org/2000/svg"
   xmlns:sodipodi="http://sodipodi.sourceforge.net/DTD/sodipodi-0.dtd"
   xmlns:inkscape="http://www.inkscape.org/namespaces/inkscape"
   version="1.1"
   id="Layer_1"
   x="0px"
   y="0px"
   viewBox="0 0 316.5 93.9"
   style="enable-background:new 0 0 316.5 93.9;"
   xml:space="preserve"
   sodipodi:docname="191103_MIRO_Logo_Schriftzug_white.svg"
   inkscape:version="0.92.4 (5da689c313, 2019-01-14)"><metadata
   id="metadata3875"><rdf:RDF><cc:Work
       rdf:about=""><dc:format>image/svg+xml</dc:format><dc:type
         rdf:resource="http://purl.org/dc/dcmitype/StillImage" /><dc:title></dc:title></cc:Work></rdf:RDF></metadata><defs
   id="defs3873" /><sodipodi:namedview
   pagecolor="#ffffff"
   bordercolor="#666666"
   borderopacity="1"
   objecttolerance="10"
   gridtolerance="10"
   guidetolerance="10"
   inkscape:pageopacity="0"
   inkscape:pageshadow="2"
   inkscape:window-width="1920"
   inkscape:window-height="1017"
   id="namedview3871"
   showgrid="false"
   inkscape:zoom="3.6271722"
   inkscape:cx="228.43039"
   inkscape:cy="6.7836298"
   inkscape:window-x="-8"
   inkscape:window-y="-8"
   inkscape:window-maximized="1"
   inkscape:current-layer="Layer_1" />
<style
   type="text/css"
   id="style3830">
	.st0{fill:url(#SVGID_1_);stroke:#FFFFFF;stroke-width:4;stroke-miterlimit:10;enable-background:new    ;}
	.st1{fill:url(#SVGID_2_);stroke:#FFFFFF;stroke-width:4;stroke-miterlimit:10;}
</style>
<g
   id="g3852">
	<g
   id="g3840">
		<path
   d="M131.3,25.4c8.7,0,13.2,4.4,13.2,4.4l-2.6,3.8c0,0-4.1-3.5-10.2-3.5c-8.6,0-13.8,6.3-13.8,14c0,8.4,5.7,14.3,13.5,14.3    c6.3,0,10.4-4.5,10.4-4.5v-5.3h-6V44h10.6v18.4h-4.5v-2.3c0-0.8,0-1.5,0-1.5h-0.1c0,0-4,4.5-11.2,4.5c-9.8,0-18-7.8-18-18.9    C112.8,33.7,120.7,25.4,131.3,25.4z"
   id="path3832"
   style="fill:#ffffff" />
		<path
   d="M188.5,51.9h-13.8l-3.7,10.5h-5.3l13.1-36.5h5.3l13.1,36.5h-5.3L188.5,51.9z M181.6,31c0,0-0.8,3.3-1.5,5.2L176,47.7h11    l-4.1-11.6C182.5,34.4,181.7,31,181.6,31L181.6,31z"
   id="path3834"
   style="fill:#ffffff" />
		<path
   d="M219.9,25.9h5.3l8.3,19.8c0.8,2,1.8,4.9,1.8,4.9h0.1c0,0,1-2.9,1.8-4.9l8.3-19.8h5.3l3,36.5h-5l-1.8-23    c-0.1-2.2,0-5.3,0-5.3h-0.1c0,0-1.1,3.4-1.9,5.3l-7.2,16.5h-4.5L226,39.4c-0.8-1.9-1.9-5.5-1.9-5.5H224c0,0,0,3.3-0.1,5.5l-1.8,23    h-5.2L219.9,25.9z"
   id="path3836"
   style="fill:#ffffff" />
		<path
   d="M277.6,54.5c0,0,3.8,4,9.3,4c3.4,0,6.3-1.9,6.3-5.3c0-7.9-17.7-6.1-17.7-17.4c0-5.7,4.9-10.2,11.7-10.2    c6.8,0,10.4,3.7,10.4,3.7l-2.3,4.2c0,0-3.4-3.1-8-3.1c-3.8,0-6.7,2.5-6.7,5.3c0,7.5,17.7,5.6,17.7,17.3c0,5.6-4.4,10.2-11.6,10.2    c-7.8,0-12.1-4.8-12.1-4.8L277.6,54.5z"
   id="path3838"
   style="fill:#ffffff" />
	</g>
	<g
   id="g3850">
		<path
   d="M159.3,72.4h1.4l4.5,8.6l4.4-8.6h1.4v11.5H170V74l-4.4,8.6h-0.7l-4.5-8.6v9.9h-1V72.4z"
   id="path3842"
   style="fill:#ffffff" />
		<path
   d="M191.1,72.4h1.1v11.5h-1.1V72.4z"
   id="path3844"
   style="fill:#ffffff" />
		<path
   d="M219.9,83.9l-2.5-3.7c-0.3,0-0.6,0-0.8,0h-3.1v3.7h-1.1V72.4h4.3c1.4,0,2.6,0.3,3.3,1c0.8,0.7,1.2,1.6,1.2,2.8    c0,1-0.3,1.8-0.7,2.4c-0.5,0.7-1.1,1-2,1.3l2.7,3.9L219.9,83.9L219.9,83.9z M216.6,79.2c1.1,0,2-0.3,2.6-0.7    c0.6-0.5,0.9-1.2,0.9-2.2c0-0.9-0.3-1.6-0.9-2.1c-0.6-0.5-1.4-0.7-2.6-0.7h-3.1v5.7H216.6z"
   id="path3846"
   style="fill:#ffffff" />
		<path
   d="M248.6,73.2c0.9,0.5,1.6,1.2,2.2,2.1c0.5,0.9,0.8,1.8,0.8,2.9s-0.3,2-0.8,2.9c-0.5,0.9-1.2,1.6-2.2,2.2    c-0.9,0.5-1.9,0.8-3,0.8c-1.1,0-2.1-0.3-3-0.8s-1.6-1.2-2.2-2.2c-0.5-0.9-0.8-1.9-0.8-2.9s0.3-2,0.8-2.9c0.5-0.9,1.2-1.6,2.2-2.1    c0.9-0.5,1.9-0.8,3-0.8C246.7,72.4,247.7,72.6,248.6,73.2z M243.2,74c-0.7,0.4-1.3,1-1.8,1.7c-0.5,0.7-0.7,1.5-0.7,2.4    c0,0.9,0.2,1.7,0.7,2.4c0.5,0.7,1,1.3,1.8,1.8c0.7,0.5,1.6,0.7,2.4,0.7c0.9,0,1.6-0.2,2.4-0.7c0.7-0.5,1.3-1,1.8-1.8    c0.5-0.7,0.7-1.6,0.7-2.4s-0.2-1.7-0.7-2.4c-0.5-0.7-1-1.3-1.8-1.7c-0.7-0.5-1.5-0.7-2.4-0.7C244.8,73.4,243.9,73.6,243.2,74z"
   id="path3848"
   style="fill:#ffffff" />
	</g>
</g>
<g
   id="g3868">

		<linearGradient
   id="SVGID_1_"
   gradientUnits="userSpaceOnUse"
   x1="52.6769"
   y1="5.0018"
   x2="52.6769"
   y2="46.3648"
   gradientTransform="matrix(1 0 0 -1 0 84.5375)">
		<stop
   offset="0"
   style="stop-color:#000000"
   id="stop3854" />
		<stop
   offset="1"
   style="stop-color:#3B3B3C"
   id="stop3856" />
	</linearGradient>
	<polygon
   class="st0"
   points="52.1,85.6 10.2,59.3 53.2,35 95.1,61.2  "
   id="polygon3859" />

		<linearGradient
   id="SVGID_2_"
   gradientUnits="userSpaceOnUse"
   x1="52.7769"
   y1="72.2413"
   x2="52.7769"
   y2="44.617"
   gradientTransform="matrix(1 0 0 -1 0 84.5375)">
		<stop
   offset="0"
   style="stop-color:#F6A63C"
   id="stop3861" />
		<stop
   offset="1"
   style="stop-color:#F39619"
   id="stop3863" />
	</linearGradient>
	<polygon
   class="st1"
   points="52.2,60.5 10.3,34.3 53.3,10 95.2,36.2  "
   id="polygon3866" />
</g>
</svg>
