<svg width="231.48" height="75.418" version="1.1" viewBox="0 0 231.48 75.418" xml:space="preserve" xmlns="http://www.w3.org/2000/svg" xmlns:cc="http://creativecommons.org/ns#" xmlns:dc="http://purl.org/dc/elements/1.1/" xmlns:rdf="http://www.w3.org/1999/02/22-rdf-syntax-ns#"><metadata><rdf:RDF><cc:Work rdf:about=""><dc:format>image/svg+xml</dc:format><dc:type rdf:resource="http://purl.org/dc/dcmitype/StillImage"/><dc:title/></cc:Work></rdf:RDF></metadata>
<style type="text/css">
	.st0{clip-path:url(#SVGID_2_);}
</style><g fill="#fff">
<g transform="translate(-134.29 -43.082)">
	<path d="m180.7 100.8h2.1l6.9 13.1 6.8-13.1h2.2v17.5h-1.7v-15.1l-6.8 13.2h-1l-6.9-13.2v15.1h-1.6z"/>
	<path d="m229.3 100.8h1.7v17.5h-1.7z"/>
	<path d="m273.3 118.3-3.8-5.7h-1.2-4.8v5.7h-1.7v-17.5h6.5c2.2 0 3.9 0.5 5.1 1.5s1.8 2.4 1.8 4.3c0 1.5-0.4 2.7-1 3.6-0.7 1-1.7 1.6-3 2l4.2 6h-2.1zm-5-7.2c1.7 0 3-0.4 3.9-1.1 0.9-0.8 1.3-1.9 1.3-3.3s-0.5-2.5-1.3-3.2c-0.9-0.7-2.2-1.1-3.9-1.1h-4.8v8.7z"/>
	<path d="m317.2 101.9c1.4 0.8 2.5 1.9 3.3 3.2s1.2 2.8 1.2 4.4-0.4 3.1-1.2 4.5-1.9 2.5-3.3 3.3-2.9 1.2-4.6 1.2-3.2-0.4-4.6-1.2-2.5-1.9-3.3-3.3-1.2-2.9-1.2-4.5 0.4-3.1 1.2-4.4c0.8-1.4 1.9-2.4 3.3-3.2s2.9-1.2 4.6-1.2c1.6 0 3.2 0.4 4.6 1.2zm-8.3 1.3c-1.1 0.6-2 1.5-2.7 2.6s-1 2.3-1 3.7c0 1.3 0.3 2.6 1 3.7s1.6 2 2.7 2.7 2.4 1 3.7 1 2.5-0.3 3.7-1c1.1-0.7 2-1.6 2.7-2.7s1-2.4 1-3.7-0.3-2.6-1-3.7-1.6-2-2.7-2.6c-1.1-0.7-2.3-1-3.7-1-1.3 0-2.6 0.3-3.7 1z"/>
</g><g stroke-width="1.6996">
<path d="m23.536 0.25173c10.877 0 16.486 5.4386 16.486 5.4386l-3.2292 4.7588s-5.0987-4.4189-12.747-4.4189c-10.707 0-17.166 7.818-17.166 17.506 0 10.537 7.1382 17.845 16.826 17.845 7.818 0 12.917-5.6086 12.917-5.6086v-6.6283h-7.4781v-5.6086h13.257v22.944h-5.6086v-2.8893-1.8695h-0.16995s-4.9288 5.6086-13.936 5.6086c-12.237 0-22.434-9.6875-22.434-23.624 0.16996-13.087 10.027-23.454 23.284-23.454z"/><path d="m94.666 33.142h-17.166l-4.5888 13.087h-6.6283l16.316-45.548h6.6283l16.316 45.548h-6.6283zm-8.6678-26.173s-1.0197 4.079-1.8695 6.4583l-5.0987 14.446h13.766l-5.0987-14.446c-0.50987-2.2094-1.5296-6.4583-1.6996-6.4583z"/><path d="m133.76 0.67983h6.6283l10.367 24.644c1.0197 2.5493 2.2094 6.1184 2.2094 6.1184h0.16995s1.1897-3.5691 2.2094-6.1184l10.367-24.644h6.6283l3.739 45.548h-6.2884l-2.2094-28.723c-0.16995-2.7193 0-6.6283 0-6.6283h-0.16995s-1.3597 4.2489-2.3794 6.6283l-9.0077 20.565h-5.6086l-9.0077-20.565c-1.0198-2.3794-2.3794-6.7983-2.3794-6.7983h-0.16995s0 4.079-0.16996 6.7983l-2.2094 28.723h-6.4583z"/><path d="m205.82 36.371s4.7588 4.9287 11.557 4.9287c4.2489 0 7.818-2.3794 7.818-6.6283 0-9.8575-22.094-7.648-22.094-21.754 0-7.1382 6.1184-12.747 14.616-12.747s12.917 4.5888 12.917 4.5888l-2.8893 5.2687s-4.2489-3.909-10.027-3.909c-4.7588 0-8.3279 3.0592-8.3279 6.6283 0 9.3476 22.094 6.9682 22.094 21.584 0 6.9682-5.4386 12.747-14.446 12.747-9.6875 0-15.126-5.9485-15.126-5.9485z"/></g></g><rect x="-.62303" y=".0047028" width="245.82" height="89.743" fill="none"/><rect x="227.07" y="69.105" width="18.125" height="20.642" fill="none"/></svg>
